Coordinates
version=1
nRows=39
nColumns=30
inDegrees=yes

Units are S.I. units (second, meters, Newtons, ...)
Angles are in degrees.

endheader
time	floatyaw	floatroll	floatpitch	floatx	floaty	floatz	pro_sup_l	deviation_l	flexion_l	cmc_flexion_l	cmc_abduction_l	mp_flexion_l	ip_flexion_l	2mcp_flexion_l	2mcp_abduction_l	2pm_flexion_l	2md_flexion_l	3mcp_flexion_l	3mcp_abduction_l	3pm_flexion_l	3md_flexion_l	4mcp_flexion_l	4mcp_abduction_l	4pm_flexion_l	4md_flexion_l	5mcp_flexion_l	5mcp_abduction_l	5pm_flexion_l	5md_flexion_l
-0.495000	-160.147433	-5.066637	-73.570646	0.081011	-0.181665	-0.017324	102.828148	4.409297	-0.789518	11.794463	10.233150	-26.321605	-41.337375	30.412817	7.016109	43.889420	30.236008	23.970582	4.365945	46.278050	30.912432	13.308786	-4.463487	53.355580	36.938444	2.356377	-8.109886	61.867630	42.939159
-0.485000	-160.147433	-5.066637	-73.570646	0.081008	-0.181660	-0.017340	102.797848	4.391573	-0.782093	11.777203	10.231163	-26.339363	-41.356970	30.415797	7.026640	43.893913	30.223870	23.985115	4.369142	46.257961	30.891389	13.311638	-4.462550	53.362993	36.934309	2.340146	-8.119231	61.905751	42.958133
-0.475000	-160.147433	-5.066637	-73.570646	0.081005	-0.181651	-0.017359	102.763115	4.370426	-0.770375	11.761781	10.235417	-26.350351	-41.366580	30.414663	7.041964	43.890800	30.211600	23.997921	4.369888	46.248861	30.878939	13.308722	-4.459787	53.372424	36.932554	2.328614	-8.132296	61.935096	42.972369
-0.465000	-160.147433	-5.066637	-73.570646	0.081003	-0.181639	-0.017384	102.730551	4.348059	-0.757343	11.748142	10.253484	-26.349289	-41.367175	30.415987	7.060204	43.879659	30.199072	24.004029	4.368591	46.263438	30.882510	13.300828	-4.456542	53.387866	36.935943	2.329486	-8.148520	61.948583	42.977140
-0.455000	-160.147433	-5.066637	-73.570646	0.081003	-0.181623	-0.017416	102.709671	4.327472	-0.745209	11.736329	10.285564	-26.334804	-41.360589	30.422531	7.078847	43.861875	30.186708	23.999547	4.366170	46.306862	30.904290	13.290329	-4.454460	53.409983	36.944807	2.345236	-8.166011	61.947088	42.972471
-0.445000	-160.147433	-5.066637	-73.570646	0.081008	-0.181599	-0.017461	102.710903	4.311758	-0.734598	11.726371	10.323635	-26.309775	-41.347974	30.431179	7.095414	43.843151	30.177056	23.984141	4.363530	46.373752	30.939660	13.281320	-4.454741	53.434905	36.956168	2.373181	-8.182149	61.939730	42.962998
-0.435000	-160.147433	-5.066637	-73.570646	0.081015	-0.181562	-0.017526	102.742537	4.303362	-0.724422	11.718023	10.355589	-26.280281	-41.330071	30.434136	7.107830	43.833864	30.174819	23.961835	4.361145	46.449551	30.978396	13.278628	-4.457680	53.455293	36.964511	2.407794	-8.194382	61.939002	42.954906
-0.425000	-160.147433	-5.066637	-73.570646	0.081021	-0.181505	-0.017617	102.808147	4.303681	-0.712352	11.710633	10.371452	-26.253784	-41.308767	30.422519	7.114645	43.845785	30.184908	23.939458	4.358934	46.515811	31.008367	13.285635	-4.462630	53.463372	36.964037	2.443309	-8.200883	61.953499	42.951938
-0.415000	-160.147433	-5.066637	-73.570646	0.081020	-0.181424	-0.017742	102.906195	4.313160	-0.695808	11.703466	10.367692	-26.237118	-41.288471	30.390456	7.115481	43.886245	30.209478	23.923341	4.356374	46.557384	31.020388	13.302303	-4.468384	53.454418	36.951309	2.475275	-8.200810	61.982731	42.953054
-0.405000	-160.147433	-5.066637	-73.570646	0.081006	-0.181319	-0.017907	103.032330	4.331569	-0.673230	11.696527	10.347446	-26.234693	-41.276052	30.338145	7.111758	43.952920	30.245498	23.915899	4.352803	46.568713	31.012218	13.325149	-4.473859	53.428918	36.926968	2.500986	-8.194143	62.017331	42.953250
-0.395000	-160.147433	-5.066637	-73.570646	0.080975	-0.181190	-0.018117	103.182961	4.358092	-0.644994	11.691347	10.317436	-26.247151	-41.278895	30.272881	7.107140	44.032660	30.284432	23.913939	4.347843	46.556399	30.989785	13.349436	-4.478811	53.392515	36.895738	2.519404	-8.181445	62.044758	42.947100
-0.385000	-160.147433	-5.066637	-73.570646	0.080926	-0.181041	-0.018380	103.357619	4.391297	-0.613160	11.690826	10.284042	-26.270898	-41.301721	30.207308	7.106855	44.105968	30.314799	23.909847	4.341828	46.536234	30.964615	13.371977	-4.484072	53.353927	36.864785	2.531005	-8.164022	62.057205	42.932850
-0.375000	-160.147433	-5.066637	-73.570646	0.080859	-0.180870	-0.018703	103.558219	4.429660	-0.579698	11.697569	10.250928	-26.299166	-41.343945	30.154610	7.115540	44.155662	30.326987	23.895300	4.335918	46.525140	30.948182	13.392443	-4.490991	53.321635	36.841080	2.537531	-8.144677	62.056823	42.914430
-0.365000	-160.147433	-5.066637	-73.570646	0.080772	-0.180675	-0.019100	103.785484	4.473140	-0.543787	11.711091	10.219167	-26.325021	-41.399544	30.121832	7.134413	44.175399	30.318124	23.865670	4.331646	46.531435	30.945671	13.412418	-4.500313	53.300391	36.828655	2.541266	-8.128350	62.054893	42.899862
-0.355000	-160.147433	-5.066637	-73.570646	0.080659	-0.180444	-0.019588	104.035002	4.525566	-0.499655	11.725427	10.189034	-26.345595	-41.460210	30.104569	7.159511	44.172831	30.294060	23.822893	4.330035	46.548233	30.952199	13.433246	-4.511201	53.288622	36.826656	2.543191	-8.121550	62.065543	42.897049
-0.345000	-160.147433	-5.066637	-73.570646	0.080507	-0.180162	-0.020192	104.296058	4.596964	-0.436528	11.729029	10.161585	-26.365355	-41.520393	30.086910	7.182425	44.164790	30.266652	23.775554	4.330851	46.553447	30.953409	13.454585	-4.521083	53.277596	36.828857	2.539846	-8.129983	62.098280	42.909775
-0.335000	-160.147433	-5.066637	-73.570646	0.080294	-0.179807	-0.020947	104.554283	4.704879	-0.341631	11.707906	10.138686	-26.395890	-41.581230	30.048281	7.193521	44.167038	30.247418	23.736425	4.332622	46.517017	30.930382	13.474905	-4.526323	53.253150	36.825061	2.520725	-8.155121	62.153624	42.936306
-0.325000	-160.147433	-5.066637	-73.570646	0.079992	-0.179353	-0.021895	104.795694	4.873870	-0.206048	11.650695	10.121631	-26.451375	-41.650536	29.974525	7.186054	44.185158	30.241319	23.718545	4.333551	46.413178	30.867307	13.493608	-4.523181	53.200341	36.804472	2.469843	-8.191332	62.223012	42.970548
-0.315000	-160.147433	-5.066637	-73.570646	0.079568	-0.178772	-0.023080	105.008144	5.132879	-0.031769	11.552427	10.109581	-26.541520	-41.737913	29.866948	7.158880	44.212503	30.244611	23.731085	4.332779	46.233133	30.759028	13.513406	-4.508477	53.109802	36.760143	2.373792	-8.225204	62.291164	43.003856
-0.305000	-160.147433	-5.066637	-73.570646	0.078986	-0.178039	-0.024538	105.178797	5.511252	0.163023	11.413894	10.099175	-26.665383	-41.846739	29.743320	7.116190	44.235900	30.247949	23.776178	4.330990	45.991859	30.614922	13.541655	-4.479937	52.982215	36.692317	2.233561	-8.237775	62.338554	43.025877
-0.295000	-160.147433	-5.066637	-73.570646	0.078208	-0.177129	-0.026295	105.290804	6.035093	0.343624	11.236475	10.086148	-26.808885	-41.966731	29.629343	7.064391	44.244042	30.242156	23.847880	4.329655	45.724061	30.456451	13.590025	-4.436621	52.826866	36.608314	2.072654	-8.209190	62.342933	43.024452
-0.285000	-160.147433	-5.066637	-73.570646	0.077196	-0.176018	-0.028363	105.324291	6.725128	0.464689	11.016098	10.069277	-26.946927	-42.070978	29.545002	7.008141	44.231956	30.222466	23.933960	4.329033	45.469818	30.308835	13.672386	-4.379566	52.653454	36.518300	1.934762	-8.124437	62.280402	42.985861
-0.275000	-160.147433	-5.066637	-73.570646	0.075909	-0.174675	-0.030746	105.263968	7.595650	0.480065	10.741642	10.056206	-27.048950	-42.119488	29.493376	6.948242	44.198513	30.188643	24.020124	4.326000	45.257097	30.190837	13.801261	-4.311983	52.461219	36.428936	1.870557	-7.978945	62.127784	42.896833
-0.265000	-160.147433	-5.066637	-73.570646	0.074301	-0.173055	-0.033445	105.110492	8.653116	0.351497	10.400662	10.069490	-27.085804	-42.068535	29.458052	6.882813	44.139310	30.141551	24.094992	4.313212	45.090318	30.107724	13.984141	-4.238182	52.231804	36.338418	1.920409	-7.783357	61.867555	42.748609
-0.255000	-160.147433	-5.066637	-73.570646	0.072325	-0.171097	-0.036464	104.889211	9.893976	0.051440	9.989963	10.149894	-27.036177	-41.883009	29.410650	6.810632	44.040462	30.078976	24.153784	4.280757	44.949633	30.050013	14.222128	-4.161360	51.929854	36.235566	2.102200	-7.566540	61.493953	42.541391
-0.245000	-160.147433	-5.066637	-73.570646	0.069934	-0.168737	-0.039812	104.650154	11.303396	-0.440893	9.523936	10.353969	-26.891907	-41.548313	29.325123	6.733769	43.878550	29.993684	24.199537	4.220530	44.798876	29.997091	14.513307	-4.081746	51.510878	36.103317	2.409839	-7.374469	61.016437	42.286368
-0.235000	-160.147433	-5.066637	-73.570646	0.067082	-0.165916	-0.043498	104.457101	12.857045	-1.146202	9.033755	10.744578	-26.662029	-41.078843	29.192891	6.657223	43.629007	29.875397	24.242121	4.131946	44.597380	29.923405	14.860453	-3.996979	50.933567	35.925218	2.821631	-7.261477	60.457413	42.003451
-0.225000	-160.147433	-5.066637	-73.570646	0.063734	-0.162598	-0.047530	104.369555	14.525830	-2.087973	8.556274	11.375893	-26.374424	-40.520559	29.032319	6.585629	43.280808	29.716386	24.295983	4.025854	44.312961	29.806122	15.278111	-3.905411	50.174723	35.693303	3.313263	-7.272559	59.844727	41.715529
-0.215000	-160.147433	-5.066637	-73.570646	0.059870	-0.158787	-0.051901	104.426350	16.280630	-3.287776	8.118916	12.277979	-26.071920	-39.944920	28.886852	6.519574	42.850851	29.518513	24.376725	3.923079	43.935970	29.634505	15.791221	-3.810634	49.245456	35.415853	3.869798	-7.421591	59.202666	41.442335
-0.205000	-160.147433	-5.066637	-73.570646	0.055496	-0.154532	-0.056570	104.640100	18.094075	-4.755767	7.730473	13.449394	-25.799057	-39.431599	28.808552	6.454480	42.389442	29.298467	24.495166	3.846281	43.492857	29.420038	16.420582	-3.723717	48.204052	35.122431	4.492882	-7.676296	58.545500	41.197050
-0.195000	-160.147433	-5.066637	-73.570646	0.050636	-0.149936	-0.061458	105.006358	19.938907	-6.484286	7.384569	14.865580	-25.579788	-39.041396	28.829504	6.382711	41.971177	29.088269	24.647368	3.808311	43.052397	29.202742	17.159230	-3.660540	47.156530	34.862363	5.199929	-7.960016	57.875098	40.986286
-0.185000	-160.147433	-5.066637	-73.570646	0.045323	-0.145135	-0.066458	105.522629	21.783767	-8.450085	7.074514	16.502100	-25.395107	-38.789987	28.931305	6.296230	41.673074	28.929813	24.801524	3.803720	42.714588	29.046652	17.951891	-3.635123	46.237204	34.693732	6.011190	-8.171422	57.182069	40.810686
-0.175000	-160.147433	-5.066637	-73.570646	0.039567	-0.140285	-0.071468	106.205824	23.586667	-10.621885	6.811119	18.358172	-25.176191	-38.640490	29.027330	6.186268	41.549247	28.864163	24.886957	3.809056	42.577646	29.019994	18.689820	-3.652920	45.570527	34.663562	6.922701	-8.213538	56.450749	40.662467
-0.165000	-160.147433	-5.066637	-73.570646	0.033353	-0.135540	-0.076411	107.097384	25.287751	-12.963077	6.632831	20.459791	-24.824099	-38.526664	28.968719	6.039766	41.612403	28.917395	24.794099	3.792349	42.691506	29.163299	19.225706	-3.707650	45.225967	34.784234	7.872294	-8.021150	55.670386	40.519615
-0.155000	-160.147433	-5.066637	-73.570646	0.026647	-0.131062	-0.081246	108.252793	26.807229	-15.421752	6.600576	22.832813	-24.251805	-38.397908	28.575719	5.836967	41.828219	29.086209	24.393901	3.726889	43.019292	29.457892	19.405279	-3.782407	45.183981	35.015107	8.718064	-7.580098	54.854134	40.342655
-0.145000	-160.147433	-5.066637	-73.570646	0.019435	-0.127019	-0.085955	109.720768	28.056186	-17.911180	6.776016	25.458041	-23.429285	-38.258320	27.688254	5.555971	42.126384	29.330604	23.579321	3.603085	43.433359	29.813280	19.109642	-3.854020	45.333351	35.261542	9.252808	-6.935331	54.062823	40.084014
-0.135000	-160.147433	-5.066637	-73.570646	0.011745	-0.123585	-0.090518	111.521261	28.961807	-20.294694	7.190443	28.234291	-22.409030	-38.172215	26.226134	5.186840	42.432525	29.584780	22.321622	3.434648	43.764213	30.090664	18.303109	-3.899924	45.515963	35.402799	9.267138	-6.185598	53.424184	39.716971
-0.125000	-160.147433	-5.066637	-73.570646	0.003656	-0.120902	-0.094908	113.629152	29.497610	-22.390412	7.818072	30.971372	-21.320185	-38.230302	24.245580	4.752031	42.718752	29.793721	20.723838	3.258465	43.897029	30.167400	17.079136	-3.906728	45.617263	35.350946	8.651293	-5.466366	53.134128	39.280333
-0.115000	-160.147433	-5.066637	-73.570646	-0.004705	-0.119047	-0.099091	115.964609	29.702211	-24.000464	8.566554	33.419603	-20.336923	-38.499838	21.972655	4.324312	43.053934	29.968688	19.047817	3.128815	43.878930	30.025675	15.689742	-3.877857	45.670572	35.125347	7.500809	-4.927978	53.428330	38.920677
